<svg width="21" height="15" viewBox="0 0 21 15" fill="none" xmlns="http://www.w3.org/2000/svg">
<g clip-path="url(#clip0)">
<path d="M11.3796 7.08838L4.44165 0.169625C4.21434 -0.0569268 3.84631 -0.0565459 3.61938 0.170797C3.39262 0.398111 3.39321 0.766342 3.62055 0.993069L10.1455 7.50003L3.62031 14.007C3.393 14.2337 3.39242 14.6017 3.61914 14.829C3.7329 14.943 3.88194 15 4.03097 15C4.17962 15 4.32807 14.9434 4.44162 14.8302L11.3796 7.91164C11.4891 7.80272 11.5505 7.65448 11.5505 7.50003C11.5505 7.34557 11.4889 7.19751 11.3796 7.08838Z" fill="black"/>
</g>
<g clip-path="url(#clip1)">
<path d="M17.3796 7.08838L10.4416 0.169625C10.2143 -0.0569268 9.84631 -0.0565459 9.61938 0.170797C9.39262 0.398111 9.39321 0.766342 9.62055 0.993069L16.1455 7.50003L9.62031 14.007C9.393 14.2337 9.39242 14.6017 9.61914 14.829C9.7329 14.943 9.88194 15 10.031 15C10.1796 15 10.3281 14.9434 10.4416 14.8302L17.3796 7.91164C17.4891 7.80272 17.5505 7.65448 17.5505 7.50003C17.5505 7.34557 17.4889 7.19751 17.3796 7.08838Z" fill="black"/>
</g>
<defs>
<clipPath id="clip0">
<rect width="15" height="15" fill="white"/>
</clipPath>
<clipPath id="clip1">
<rect width="15" height="15" fill="white" transform="translate(6)"/>
</clipPath>
</defs>
</svg>
