<svg width="37" height="36" viewBox="0 0 37 36" fill="none" xmlns="http://www.w3.org/2000/svg">
<path d="M23.41 21.1107H22.2392L21.8242 20.7115C23.2766 19.0262 24.151 16.8382 24.151 14.458C24.151 9.15068 19.8383 4.84863 14.5179 4.84863C9.19744 4.84863 4.88477 9.15068 4.88477 14.458C4.88477 19.7654 9.19744 24.0674 14.5179 24.0674C16.9039 24.0674 19.0973 23.1952 20.7868 21.7464L21.187 22.1603V23.3282L28.5971 30.7053L30.8053 28.5025L23.41 21.1107ZM14.5179 21.1107C10.8277 21.1107 7.8488 18.1392 7.8488 14.458C7.8488 10.7769 10.8277 7.80537 14.5179 7.80537C18.2081 7.80537 21.187 10.7769 21.187 14.458C21.187 18.1392 18.2081 21.1107 14.5179 21.1107Z" fill="white"/>
</svg>
